<?xml version="1.0" encoding="UTF-8" standalone="no"?>
<!DOCTYPE svg PUBLIC "-//W3C//DTD SVG 1.1//EN"
 "http://www.w3.org/Graphics/SVG/1.1/DTD/svg11.dtd">
<!-- Generated by graphviz version 2.38.0 (20140413.2041)
 -->
<!-- Title: %3 Pages: 1 -->
<svg width="818pt" height="1052pt"
 viewBox="0.00 0.00 818.39 1052.00" xmlns="http://www.w3.org/2000/svg" xmlns:xlink="http://www.w3.org/1999/xlink">
<g id="graph0" class="graph" transform="scale(1 1) rotate(0) translate(4 1048)">
<title>%3</title>
<polygon fill="white" stroke="none" points="-4,4 -4,-1048 814.388,-1048 814.388,4 -4,4"/>
<!-- 3 -->
<g id="node1" class="node"><title>3</title>
<ellipse fill="none" stroke="black" cx="76.6932" cy="-738" rx="76.8869" ry="18"/>
<text text-anchor="middle" x="76.6932" y="-734.3" font-family="Times,serif" font-size="14.00">input&#45;History.hash</text>
</g>
<!-- 5 -->
<g id="node2" class="node"><title>5</title>
<ellipse fill="none" stroke="black" cx="151.693" cy="-666" rx="30.5947" ry="18"/>
<text text-anchor="middle" x="151.693" y="-662.3" font-family="Times,serif" font-size="14.00">map1</text>
</g>
<!-- 3&#45;&gt;5 -->
<g id="edge1" class="edge"><title>3&#45;&gt;5</title>
<path fill="none" stroke="black" d="M94.4671,-720.411C104.645,-710.911 117.534,-698.882 128.502,-688.646"/>
<polygon fill="black" stroke="black" points="131.16,-690.952 136.082,-681.57 126.383,-685.835 131.16,-690.952"/>
</g>
<!-- 6 -->
<g id="node3" class="node"><title>6</title>
<ellipse fill="none" stroke="black" cx="233.693" cy="-594" rx="54.6905" ry="18"/>
<text text-anchor="middle" x="233.693" y="-590.3" font-family="Times,serif" font-size="14.00">dropRepeats</text>
</g>
<!-- 5&#45;&gt;6 -->
<g id="edge2" class="edge"><title>5&#45;&gt;6</title>
<path fill="none" stroke="black" d="M168.287,-650.834C179.448,-641.306 194.404,-628.54 207.197,-617.619"/>
<polygon fill="black" stroke="black" points="209.496,-620.258 214.829,-611.103 204.951,-614.934 209.496,-620.258"/>
</g>
<!-- 49 -->
<g id="node4" class="node"><title>49</title>
<ellipse fill="none" stroke="black" cx="326.693" cy="-522" rx="33.2948" ry="18"/>
<text text-anchor="middle" x="326.693" y="-518.3" font-family="Times,serif" font-size="14.00">merge</text>
</g>
<!-- 6&#45;&gt;49 -->
<g id="edge3" class="edge"><title>6&#45;&gt;49</title>
<path fill="none" stroke="black" d="M254.796,-577.116C268.147,-567.067 285.525,-553.986 299.853,-543.203"/>
<polygon fill="black" stroke="black" points="301.997,-545.969 307.882,-537.159 297.787,-540.376 301.997,-545.969"/>
</g>
<!-- 38 -->
<g id="node5" class="node"><title>38</title>
<ellipse fill="none" stroke="black" cx="218.693" cy="-522" rx="46.5926" ry="18"/>
<text text-anchor="middle" x="218.693" y="-518.3" font-family="Times,serif" font-size="14.00">sampleOn</text>
</g>
<!-- 6&#45;&gt;38 -->
<g id="edge4" class="edge"><title>6&#45;&gt;38</title>
<path fill="none" stroke="black" d="M229.985,-575.697C228.332,-567.983 226.346,-558.712 224.503,-550.112"/>
<polygon fill="black" stroke="black" points="227.876,-549.149 222.358,-540.104 221.031,-550.616 227.876,-549.149"/>
</g>
<!-- 50 -->
<g id="node6" class="node"><title>50</title>
<ellipse fill="none" stroke="black" cx="326.693" cy="-450" rx="33.2948" ry="18"/>
<text text-anchor="middle" x="326.693" y="-446.3" font-family="Times,serif" font-size="14.00">merge</text>
</g>
<!-- 49&#45;&gt;50 -->
<g id="edge5" class="edge"><title>49&#45;&gt;50</title>
<path fill="none" stroke="black" d="M326.693,-503.697C326.693,-495.983 326.693,-486.712 326.693,-478.112"/>
<polygon fill="black" stroke="black" points="330.193,-478.104 326.693,-468.104 323.193,-478.104 330.193,-478.104"/>
</g>
<!-- 39 -->
<g id="node17" class="node"><title>39</title>
<ellipse fill="none" stroke="black" cx="218.693" cy="-450" rx="30.5947" ry="18"/>
<text text-anchor="middle" x="218.693" y="-446.3" font-family="Times,serif" font-size="14.00">map2</text>
</g>
<!-- 38&#45;&gt;39 -->
<g id="edge16" class="edge"><title>38&#45;&gt;39</title>
<path fill="none" stroke="black" d="M218.693,-503.697C218.693,-495.983 218.693,-486.712 218.693,-478.112"/>
<polygon fill="black" stroke="black" points="222.193,-478.104 218.693,-468.104 215.193,-478.104 222.193,-478.104"/>
</g>
<!-- 51 -->
<g id="node7" class="node"><title>51</title>
<ellipse fill="none" stroke="black" cx="272.693" cy="-378" rx="33.2948" ry="18"/>
<text text-anchor="middle" x="272.693" y="-374.3" font-family="Times,serif" font-size="14.00">merge</text>
</g>
<!-- 50&#45;&gt;51 -->
<g id="edge6" class="edge"><title>50&#45;&gt;51</title>
<path fill="none" stroke="black" d="M314.44,-433.116C307.536,-424.166 298.776,-412.81 291.065,-402.815"/>
<polygon fill="black" stroke="black" points="293.777,-400.601 284.898,-394.821 288.235,-404.877 293.777,-400.601"/>
</g>
<!-- 52 -->
<g id="node8" class="node"><title>52</title>
<ellipse fill="none" stroke="black" cx="272.693" cy="-306" rx="29.4969" ry="18"/>
<text text-anchor="middle" x="272.693" y="-302.3" font-family="Times,serif" font-size="14.00">foldp</text>
</g>
<!-- 51&#45;&gt;52 -->
<g id="edge7" class="edge"><title>51&#45;&gt;52</title>
<path fill="none" stroke="black" d="M272.693,-359.697C272.693,-351.983 272.693,-342.712 272.693,-334.112"/>
<polygon fill="black" stroke="black" points="276.193,-334.104 272.693,-324.104 269.193,-334.104 276.193,-334.104"/>
</g>
<!-- 59 -->
<g id="node9" class="node"><title>59</title>
<ellipse fill="none" stroke="black" cx="145.693" cy="-234" rx="30.5947" ry="18"/>
<text text-anchor="middle" x="145.693" y="-230.3" font-family="Times,serif" font-size="14.00">map1</text>
</g>
<!-- 52&#45;&gt;59 -->
<g id="edge8" class="edge"><title>52&#45;&gt;59</title>
<path fill="none" stroke="black" d="M251.722,-293.441C231.197,-282.128 199.701,-264.768 176.365,-251.906"/>
<polygon fill="black" stroke="black" points="177.995,-248.808 167.548,-247.046 174.616,-254.938 177.995,-248.808"/>
</g>
<!-- 57 -->
<g id="node10" class="node"><title>57</title>
<ellipse fill="none" stroke="black" cx="272.693" cy="-234" rx="30.5947" ry="18"/>
<text text-anchor="middle" x="272.693" y="-230.3" font-family="Times,serif" font-size="14.00">map1</text>
</g>
<!-- 52&#45;&gt;57 -->
<g id="edge9" class="edge"><title>52&#45;&gt;57</title>
<path fill="none" stroke="black" d="M272.693,-287.697C272.693,-279.983 272.693,-270.712 272.693,-262.112"/>
<polygon fill="black" stroke="black" points="276.193,-262.104 272.693,-252.104 269.193,-262.104 276.193,-262.104"/>
</g>
<!-- 53 -->
<g id="node11" class="node"><title>53</title>
<ellipse fill="none" stroke="black" cx="399.693" cy="-234" rx="30.5947" ry="18"/>
<text text-anchor="middle" x="399.693" y="-230.3" font-family="Times,serif" font-size="14.00">map1</text>
</g>
<!-- 52&#45;&gt;53 -->
<g id="edge10" class="edge"><title>52&#45;&gt;53</title>
<path fill="none" stroke="black" d="M293.665,-293.441C314.189,-282.128 345.685,-264.768 369.021,-251.906"/>
<polygon fill="black" stroke="black" points="370.77,-254.938 377.839,-247.046 367.391,-248.808 370.77,-254.938"/>
</g>
<!-- 60 -->
<g id="node12" class="node"><title>60</title>
<ellipse fill="none" stroke="black" cx="97.6932" cy="-162" rx="53.8905" ry="18"/>
<text text-anchor="middle" x="97.6932" y="-158.3" font-family="Times,serif" font-size="14.00">output&#45;main</text>
</g>
<!-- 59&#45;&gt;60 -->
<g id="edge11" class="edge"><title>59&#45;&gt;60</title>
<path fill="none" stroke="black" d="M134.801,-217.116C128.956,-208.592 121.615,-197.886 115.008,-188.251"/>
<polygon fill="black" stroke="black" points="117.753,-186.065 109.211,-179.797 111.98,-190.024 117.753,-186.065"/>
</g>
<!-- 58 -->
<g id="node13" class="node"><title>58</title>
<ellipse fill="none" stroke="black" cx="272.693" cy="-162" rx="102.882" ry="18"/>
<text text-anchor="middle" x="272.693" y="-158.3" font-family="Times,serif" font-size="14.00">output&#45;outbound&#45;port&#45;title</text>
</g>
<!-- 57&#45;&gt;58 -->
<g id="edge12" class="edge"><title>57&#45;&gt;58</title>
<path fill="none" stroke="black" d="M272.693,-215.697C272.693,-207.983 272.693,-198.712 272.693,-190.112"/>
<polygon fill="black" stroke="black" points="276.193,-190.104 272.693,-180.104 269.193,-190.104 276.193,-190.104"/>
</g>
<!-- 54 -->
<g id="node14" class="node"><title>54</title>
<ellipse fill="none" stroke="black" cx="447.693" cy="-162" rx="54.6905" ry="18"/>
<text text-anchor="middle" x="447.693" y="-158.3" font-family="Times,serif" font-size="14.00">dropRepeats</text>
</g>
<!-- 53&#45;&gt;54 -->
<g id="edge13" class="edge"><title>53&#45;&gt;54</title>
<path fill="none" stroke="black" d="M410.585,-217.116C416.43,-208.592 423.771,-197.886 430.378,-188.251"/>
<polygon fill="black" stroke="black" points="433.406,-190.024 436.175,-179.797 427.633,-186.065 433.406,-190.024"/>
</g>
<!-- 55 -->
<g id="node15" class="node"><title>55</title>
<ellipse fill="none" stroke="black" cx="447.693" cy="-90" rx="30.5947" ry="18"/>
<text text-anchor="middle" x="447.693" y="-86.3" font-family="Times,serif" font-size="14.00">map1</text>
</g>
<!-- 54&#45;&gt;55 -->
<g id="edge14" class="edge"><title>54&#45;&gt;55</title>
<path fill="none" stroke="black" d="M447.693,-143.697C447.693,-135.983 447.693,-126.712 447.693,-118.112"/>
<polygon fill="black" stroke="black" points="451.193,-118.104 447.693,-108.104 444.193,-118.104 451.193,-118.104"/>
</g>
<!-- 56 -->
<g id="node16" class="node"><title>56</title>
<ellipse fill="none" stroke="black" cx="447.693" cy="-18" rx="112.38" ry="18"/>
<text text-anchor="middle" x="447.693" y="-14.3" font-family="Times,serif" font-size="14.00">output&#45;perform&#45;tasks&#45;history</text>
</g>
<!-- 55&#45;&gt;56 -->
<g id="edge15" class="edge"><title>55&#45;&gt;56</title>
<path fill="none" stroke="black" d="M447.693,-71.6966C447.693,-63.9827 447.693,-54.7125 447.693,-46.1124"/>
<polygon fill="black" stroke="black" points="451.193,-46.1043 447.693,-36.1043 444.193,-46.1044 451.193,-46.1043"/>
</g>
<!-- 39&#45;&gt;51 -->
<g id="edge17" class="edge"><title>39&#45;&gt;51</title>
<path fill="none" stroke="black" d="M230.947,-433.116C237.851,-424.166 246.611,-412.81 254.322,-402.815"/>
<polygon fill="black" stroke="black" points="257.151,-404.877 260.488,-394.821 251.609,-400.601 257.151,-404.877"/>
</g>
<!-- 7 -->
<g id="node18" class="node"><title>7</title>
<ellipse fill="none" stroke="black" cx="746.693" cy="-1026" rx="63.8893" ry="18"/>
<text text-anchor="middle" x="746.693" y="-1022.3" font-family="Times,serif" font-size="14.00">input&#45;keydown</text>
</g>
<!-- 13 -->
<g id="node19" class="node"><title>13</title>
<ellipse fill="none" stroke="black" cx="733.693" cy="-954" rx="30.5947" ry="18"/>
<text text-anchor="middle" x="733.693" y="-950.3" font-family="Times,serif" font-size="14.00">map1</text>
</g>
<!-- 7&#45;&gt;13 -->
<g id="edge18" class="edge"><title>7&#45;&gt;13</title>
<path fill="none" stroke="black" d="M743.48,-1007.7C742.047,-999.983 740.326,-990.712 738.728,-982.112"/>
<polygon fill="black" stroke="black" points="742.137,-981.297 736.87,-972.104 735.255,-982.575 742.137,-981.297"/>
</g>
<!-- 15 -->
<g id="node20" class="node"><title>15</title>
<ellipse fill="none" stroke="black" cx="630.693" cy="-882" rx="33.2948" ry="18"/>
<text text-anchor="middle" x="630.693" y="-878.3" font-family="Times,serif" font-size="14.00">merge</text>
</g>
<!-- 13&#45;&gt;15 -->
<g id="edge19" class="edge"><title>13&#45;&gt;15</title>
<path fill="none" stroke="black" d="M714.32,-939.834C698.837,-929.311 676.904,-914.405 659.384,-902.499"/>
<polygon fill="black" stroke="black" points="660.921,-899.311 650.682,-896.585 656.986,-905.101 660.921,-899.311"/>
</g>
<!-- 16 -->
<g id="node21" class="node"><title>16</title>
<ellipse fill="none" stroke="black" cx="538.693" cy="-810" rx="33.2948" ry="18"/>
<text text-anchor="middle" x="538.693" y="-806.3" font-family="Times,serif" font-size="14.00">merge</text>
</g>
<!-- 15&#45;&gt;16 -->
<g id="edge20" class="edge"><title>15&#45;&gt;16</title>
<path fill="none" stroke="black" d="M612.076,-866.834C598.733,-856.682 580.557,-842.853 565.633,-831.498"/>
<polygon fill="black" stroke="black" points="567.361,-828.414 557.283,-825.144 563.122,-833.985 567.361,-828.414"/>
</g>
<!-- 17 -->
<g id="node22" class="node"><title>17</title>
<ellipse fill="none" stroke="black" cx="536.693" cy="-738" rx="29.4969" ry="18"/>
<text text-anchor="middle" x="536.693" y="-734.3" font-family="Times,serif" font-size="14.00">foldp</text>
</g>
<!-- 16&#45;&gt;17 -->
<g id="edge21" class="edge"><title>16&#45;&gt;17</title>
<path fill="none" stroke="black" d="M538.199,-791.697C537.978,-783.983 537.714,-774.712 537.468,-766.112"/>
<polygon fill="black" stroke="black" points="540.966,-766 537.182,-756.104 533.969,-766.2 540.966,-766"/>
</g>
<!-- 22 -->
<g id="node23" class="node"><title>22</title>
<ellipse fill="none" stroke="black" cx="527.693" cy="-666" rx="30.5947" ry="18"/>
<text text-anchor="middle" x="527.693" y="-662.3" font-family="Times,serif" font-size="14.00">map1</text>
</g>
<!-- 17&#45;&gt;22 -->
<g id="edge22" class="edge"><title>17&#45;&gt;22</title>
<path fill="none" stroke="black" d="M534.468,-719.697C533.477,-711.983 532.285,-702.712 531.179,-694.112"/>
<polygon fill="black" stroke="black" points="534.639,-693.576 529.892,-684.104 527.696,-694.469 534.639,-693.576"/>
</g>
<!-- 23 -->
<g id="node24" class="node"><title>23</title>
<ellipse fill="none" stroke="black" cx="468.693" cy="-594" rx="54.6905" ry="18"/>
<text text-anchor="middle" x="468.693" y="-590.3" font-family="Times,serif" font-size="14.00">dropRepeats</text>
</g>
<!-- 22&#45;&gt;23 -->
<g id="edge23" class="edge"><title>22&#45;&gt;23</title>
<path fill="none" stroke="black" d="M514.599,-649.465C507.099,-640.566 497.523,-629.205 489.06,-619.164"/>
<polygon fill="black" stroke="black" points="491.694,-616.858 482.573,-611.467 486.341,-621.369 491.694,-616.858"/>
</g>
<!-- 36 -->
<g id="node25" class="node"><title>36</title>
<ellipse fill="none" stroke="black" cx="438.693" cy="-522" rx="30.5947" ry="18"/>
<text text-anchor="middle" x="438.693" y="-518.3" font-family="Times,serif" font-size="14.00">map1</text>
</g>
<!-- 23&#45;&gt;36 -->
<g id="edge24" class="edge"><title>23&#45;&gt;36</title>
<path fill="none" stroke="black" d="M461.431,-576.055C457.967,-567.973 453.745,-558.121 449.884,-549.112"/>
<polygon fill="black" stroke="black" points="453.045,-547.602 445.888,-539.789 446.611,-550.359 453.045,-547.602"/>
</g>
<!-- 36&#45;&gt;50 -->
<g id="edge25" class="edge"><title>36&#45;&gt;50</title>
<path fill="none" stroke="black" d="M418.411,-508.324C401.027,-497.459 375.763,-481.668 356.149,-469.41"/>
<polygon fill="black" stroke="black" points="357.919,-466.389 347.584,-464.057 354.209,-472.325 357.919,-466.389"/>
</g>
<!-- 8 -->
<g id="node26" class="node"><title>8</title>
<ellipse fill="none" stroke="black" cx="528.693" cy="-954" rx="53.0913" ry="18"/>
<text text-anchor="middle" x="528.693" y="-950.3" font-family="Times,serif" font-size="14.00">input&#45;keyup</text>
</g>
<!-- 12 -->
<g id="node27" class="node"><title>12</title>
<ellipse fill="none" stroke="black" cx="538.693" cy="-882" rx="30.5947" ry="18"/>
<text text-anchor="middle" x="538.693" y="-878.3" font-family="Times,serif" font-size="14.00">map1</text>
</g>
<!-- 8&#45;&gt;12 -->
<g id="edge26" class="edge"><title>8&#45;&gt;12</title>
<path fill="none" stroke="black" d="M531.165,-935.697C532.267,-927.983 533.591,-918.712 534.82,-910.112"/>
<polygon fill="black" stroke="black" points="538.3,-910.499 536.25,-900.104 531.371,-909.509 538.3,-910.499"/>
</g>
<!-- 12&#45;&gt;16 -->
<g id="edge27" class="edge"><title>12&#45;&gt;16</title>
<path fill="none" stroke="black" d="M538.693,-863.697C538.693,-855.983 538.693,-846.712 538.693,-838.112"/>
<polygon fill="black" stroke="black" points="542.193,-838.104 538.693,-828.104 535.193,-838.104 542.193,-838.104"/>
</g>
<!-- 10 -->
<g id="node28" class="node"><title>10</title>
<ellipse fill="none" stroke="black" cx="618.693" cy="-1026" rx="46.2923" ry="18"/>
<text text-anchor="middle" x="618.693" y="-1022.3" font-family="Times,serif" font-size="14.00">input&#45;blur</text>
</g>
<!-- 14 -->
<g id="node29" class="node"><title>14</title>
<ellipse fill="none" stroke="black" cx="630.693" cy="-954" rx="30.5947" ry="18"/>
<text text-anchor="middle" x="630.693" y="-950.3" font-family="Times,serif" font-size="14.00">map1</text>
</g>
<!-- 10&#45;&gt;14 -->
<g id="edge28" class="edge"><title>10&#45;&gt;14</title>
<path fill="none" stroke="black" d="M621.659,-1007.7C622.982,-999.983 624.571,-990.712 626.045,-982.112"/>
<polygon fill="black" stroke="black" points="629.521,-982.552 627.761,-972.104 622.622,-981.369 629.521,-982.552"/>
</g>
<!-- 14&#45;&gt;15 -->
<g id="edge29" class="edge"><title>14&#45;&gt;15</title>
<path fill="none" stroke="black" d="M630.693,-935.697C630.693,-927.983 630.693,-918.712 630.693,-910.112"/>
<polygon fill="black" stroke="black" points="634.193,-910.104 630.693,-900.104 627.193,-910.104 634.193,-910.104"/>
</g>
<!-- 37 -->
<g id="node30" class="node"><title>37</title>
<ellipse fill="none" stroke="black" cx="99.6932" cy="-594" rx="61.1893" ry="18"/>
<text text-anchor="middle" x="99.6932" y="-590.3" font-family="Times,serif" font-size="14.00">input&#45;mailbox</text>
</g>
<!-- 37&#45;&gt;38 -->
<g id="edge31" class="edge"><title>37&#45;&gt;38</title>
<path fill="none" stroke="black" d="M125.808,-577.638C143.329,-567.332 166.561,-553.666 185.408,-542.58"/>
<polygon fill="black" stroke="black" points="187.418,-545.458 194.263,-537.371 183.869,-539.424 187.418,-545.458"/>
</g>
<!-- 37&#45;&gt;39 -->
<g id="edge30" class="edge"><title>37&#45;&gt;39</title>
<path fill="none" stroke="black" d="M110.157,-576.203C121.972,-557.749 142.227,-527.597 162.693,-504 172.408,-492.799 184.2,-481.368 194.453,-472.004"/>
<polygon fill="black" stroke="black" points="196.833,-474.571 201.933,-465.284 192.155,-469.363 196.833,-474.571"/>
</g>
<!-- 40 -->
<g id="node31" class="node"><title>40</title>
<ellipse fill="none" stroke="black" cx="438.693" cy="-882" rx="51.1914" ry="18"/>
<text text-anchor="middle" x="438.693" y="-878.3" font-family="Times,serif" font-size="14.00">input&#45;touch</text>
</g>
<!-- 42 -->
<g id="node32" class="node"><title>42</title>
<ellipse fill="none" stroke="black" cx="439.693" cy="-810" rx="30.5947" ry="18"/>
<text text-anchor="middle" x="439.693" y="-806.3" font-family="Times,serif" font-size="14.00">map1</text>
</g>
<!-- 40&#45;&gt;42 -->
<g id="edge32" class="edge"><title>40&#45;&gt;42</title>
<path fill="none" stroke="black" d="M438.94,-863.697C439.051,-855.983 439.183,-846.712 439.306,-838.112"/>
<polygon fill="black" stroke="black" points="442.806,-838.153 439.449,-828.104 435.806,-838.053 442.806,-838.153"/>
</g>
<!-- 43 -->
<g id="node33" class="node"><title>43</title>
<ellipse fill="none" stroke="black" cx="443.693" cy="-738" rx="44.393" ry="18"/>
<text text-anchor="middle" x="443.693" y="-734.3" font-family="Times,serif" font-size="14.00">filterMap</text>
</g>
<!-- 42&#45;&gt;43 -->
<g id="edge33" class="edge"><title>42&#45;&gt;43</title>
<path fill="none" stroke="black" d="M440.682,-791.697C441.123,-783.983 441.652,-774.712 442.144,-766.112"/>
<polygon fill="black" stroke="black" points="445.64,-766.288 442.716,-756.104 438.651,-765.888 445.64,-766.288"/>
</g>
<!-- 47 -->
<g id="node34" class="node"><title>47</title>
<ellipse fill="none" stroke="black" cx="424.693" cy="-666" rx="54.6905" ry="18"/>
<text text-anchor="middle" x="424.693" y="-662.3" font-family="Times,serif" font-size="14.00">dropRepeats</text>
</g>
<!-- 43&#45;&gt;47 -->
<g id="edge34" class="edge"><title>43&#45;&gt;47</title>
<path fill="none" stroke="black" d="M439.094,-720.055C436.978,-712.261 434.416,-702.822 432.043,-694.079"/>
<polygon fill="black" stroke="black" points="435.38,-693.009 429.382,-684.275 428.624,-694.843 435.38,-693.009"/>
</g>
<!-- 48 -->
<g id="node35" class="node"><title>48</title>
<ellipse fill="none" stroke="black" cx="336.693" cy="-594" rx="30.5947" ry="18"/>
<text text-anchor="middle" x="336.693" y="-590.3" font-family="Times,serif" font-size="14.00">map2</text>
</g>
<!-- 47&#45;&gt;48 -->
<g id="edge35" class="edge"><title>47&#45;&gt;48</title>
<path fill="none" stroke="black" d="M404.725,-649.116C392.126,-639.095 375.736,-626.057 362.201,-615.29"/>
<polygon fill="black" stroke="black" points="364.206,-612.413 354.201,-608.927 359.848,-617.891 364.206,-612.413"/>
</g>
<!-- 48&#45;&gt;49 -->
<g id="edge36" class="edge"><title>48&#45;&gt;49</title>
<path fill="none" stroke="black" d="M334.272,-576.055C333.171,-568.346 331.84,-559.027 330.602,-550.364"/>
<polygon fill="black" stroke="black" points="334.04,-549.68 329.161,-540.275 327.111,-550.67 334.04,-549.68"/>
</g>
<!-- 44 -->
<g id="node36" class="node"><title>44</title>
<ellipse fill="none" stroke="black" cx="276.693" cy="-738" rx="105.082" ry="18"/>
<text text-anchor="middle" x="276.693" y="-734.3" font-family="Times,serif" font-size="14.00">input&#45;Window.dimensions</text>
</g>
<!-- 45 -->
<g id="node37" class="node"><title>45</title>
<ellipse fill="none" stroke="black" cx="306.693" cy="-666" rx="30.5947" ry="18"/>
<text text-anchor="middle" x="306.693" y="-662.3" font-family="Times,serif" font-size="14.00">map1</text>
</g>
<!-- 44&#45;&gt;45 -->
<g id="edge37" class="edge"><title>44&#45;&gt;45</title>
<path fill="none" stroke="black" d="M284.109,-719.697C287.575,-711.609 291.774,-701.812 295.606,-692.869"/>
<polygon fill="black" stroke="black" points="298.847,-694.192 299.569,-683.622 292.413,-691.435 298.847,-694.192"/>
</g>
<!-- 45&#45;&gt;48 -->
<g id="edge38" class="edge"><title>45&#45;&gt;48</title>
<path fill="none" stroke="black" d="M313.803,-648.411C317.264,-640.335 321.508,-630.431 325.398,-621.355"/>
<polygon fill="black" stroke="black" points="328.704,-622.526 329.426,-611.956 322.27,-619.769 328.704,-622.526"/>
</g>
</g>
</svg>
