<?xml version="1.0" encoding="UTF-8" standalone="no"?>
<!DOCTYPE svg PUBLIC "-//W3C//DTD SVG 1.1//EN"
 "http://www.w3.org/Graphics/SVG/1.1/DTD/svg11.dtd">
<!-- Generated by graphviz version 2.38.0 (20140413.2041)
 -->
<!-- Title: %3 Pages: 1 -->
<svg width="650pt" height="1052pt"
 viewBox="0.00 0.00 649.59 1052.00" xmlns="http://www.w3.org/2000/svg" xmlns:xlink="http://www.w3.org/1999/xlink">
<g id="graph0" class="graph" transform="scale(1 1) rotate(0) translate(4 1048)">
<title>%3</title>
<polygon fill="white" stroke="none" points="-4,4 -4,-1048 645.586,-1048 645.586,4 -4,4"/>
<!-- 3 -->
<g id="node1" class="node"><title>3</title>
<ellipse fill="none" stroke="black" cx="334.146" cy="-738" rx="76.8869" ry="18"/>
<text text-anchor="middle" x="334.146" y="-734.3" font-family="Times,serif" font-size="14.00">input&#45;History.hash</text>
</g>
<!-- 5 -->
<g id="node2" class="node"><title>5</title>
<ellipse fill="none" stroke="black" cx="334.146" cy="-666" rx="30.5947" ry="18"/>
<text text-anchor="middle" x="334.146" y="-662.3" font-family="Times,serif" font-size="14.00">map1</text>
</g>
<!-- 3&#45;&gt;5 -->
<g id="edge1" class="edge"><title>3&#45;&gt;5</title>
<path fill="none" stroke="black" d="M334.146,-719.697C334.146,-711.983 334.146,-702.712 334.146,-694.112"/>
<polygon fill="black" stroke="black" points="337.646,-694.104 334.146,-684.104 330.646,-694.104 337.646,-694.104"/>
</g>
<!-- 6 -->
<g id="node3" class="node"><title>6</title>
<ellipse fill="none" stroke="black" cx="334.146" cy="-594" rx="54.6905" ry="18"/>
<text text-anchor="middle" x="334.146" y="-590.3" font-family="Times,serif" font-size="14.00">dropRepeats</text>
</g>
<!-- 5&#45;&gt;6 -->
<g id="edge2" class="edge"><title>5&#45;&gt;6</title>
<path fill="none" stroke="black" d="M334.146,-647.697C334.146,-639.983 334.146,-630.712 334.146,-622.112"/>
<polygon fill="black" stroke="black" points="337.646,-622.104 334.146,-612.104 330.646,-622.104 337.646,-622.104"/>
</g>
<!-- 40 -->
<g id="node4" class="node"><title>40</title>
<ellipse fill="none" stroke="black" cx="313.146" cy="-450" rx="33.2948" ry="18"/>
<text text-anchor="middle" x="313.146" y="-446.3" font-family="Times,serif" font-size="14.00">merge</text>
</g>
<!-- 6&#45;&gt;40 -->
<g id="edge3" class="edge"><title>6&#45;&gt;40</title>
<path fill="none" stroke="black" d="M331.613,-575.871C328.034,-551.67 321.459,-507.211 317.197,-478.393"/>
<polygon fill="black" stroke="black" points="320.613,-477.57 315.688,-468.189 313.689,-478.594 320.613,-477.57"/>
</g>
<!-- 38 -->
<g id="node5" class="node"><title>38</title>
<ellipse fill="none" stroke="black" cx="393.146" cy="-522" rx="46.5926" ry="18"/>
<text text-anchor="middle" x="393.146" y="-518.3" font-family="Times,serif" font-size="14.00">sampleOn</text>
</g>
<!-- 6&#45;&gt;38 -->
<g id="edge4" class="edge"><title>6&#45;&gt;38</title>
<path fill="none" stroke="black" d="M348.128,-576.411C355.476,-567.693 364.619,-556.845 372.742,-547.208"/>
<polygon fill="black" stroke="black" points="375.496,-549.372 379.264,-539.47 370.143,-544.861 375.496,-549.372"/>
</g>
<!-- 41 -->
<g id="node6" class="node"><title>41</title>
<ellipse fill="none" stroke="black" cx="354.146" cy="-378" rx="33.2948" ry="18"/>
<text text-anchor="middle" x="354.146" y="-374.3" font-family="Times,serif" font-size="14.00">merge</text>
</g>
<!-- 40&#45;&gt;41 -->
<g id="edge5" class="edge"><title>40&#45;&gt;41</title>
<path fill="none" stroke="black" d="M322.862,-432.411C327.764,-424.042 333.816,-413.71 339.286,-404.37"/>
<polygon fill="black" stroke="black" points="342.465,-405.868 344.499,-395.47 336.425,-402.33 342.465,-405.868"/>
</g>
<!-- 39 -->
<g id="node16" class="node"><title>39</title>
<ellipse fill="none" stroke="black" cx="395.146" cy="-450" rx="30.5947" ry="18"/>
<text text-anchor="middle" x="395.146" y="-446.3" font-family="Times,serif" font-size="14.00">map2</text>
</g>
<!-- 38&#45;&gt;39 -->
<g id="edge15" class="edge"><title>38&#45;&gt;39</title>
<path fill="none" stroke="black" d="M393.64,-503.697C393.861,-495.983 394.126,-486.712 394.371,-478.112"/>
<polygon fill="black" stroke="black" points="397.87,-478.2 394.657,-468.104 390.873,-478 397.87,-478.2"/>
</g>
<!-- 42 -->
<g id="node7" class="node"><title>42</title>
<ellipse fill="none" stroke="black" cx="354.146" cy="-306" rx="29.4969" ry="18"/>
<text text-anchor="middle" x="354.146" y="-302.3" font-family="Times,serif" font-size="14.00">foldp</text>
</g>
<!-- 41&#45;&gt;42 -->
<g id="edge6" class="edge"><title>41&#45;&gt;42</title>
<path fill="none" stroke="black" d="M354.146,-359.697C354.146,-351.983 354.146,-342.712 354.146,-334.112"/>
<polygon fill="black" stroke="black" points="357.646,-334.104 354.146,-324.104 350.646,-334.104 357.646,-334.104"/>
</g>
<!-- 49 -->
<g id="node8" class="node"><title>49</title>
<ellipse fill="none" stroke="black" cx="227.146" cy="-234" rx="30.5947" ry="18"/>
<text text-anchor="middle" x="227.146" y="-230.3" font-family="Times,serif" font-size="14.00">map1</text>
</g>
<!-- 42&#45;&gt;49 -->
<g id="edge7" class="edge"><title>42&#45;&gt;49</title>
<path fill="none" stroke="black" d="M333.174,-293.441C312.65,-282.128 281.154,-264.768 257.818,-251.906"/>
<polygon fill="black" stroke="black" points="259.448,-248.808 249.001,-247.046 256.069,-254.938 259.448,-248.808"/>
</g>
<!-- 47 -->
<g id="node9" class="node"><title>47</title>
<ellipse fill="none" stroke="black" cx="354.146" cy="-234" rx="30.5947" ry="18"/>
<text text-anchor="middle" x="354.146" y="-230.3" font-family="Times,serif" font-size="14.00">map1</text>
</g>
<!-- 42&#45;&gt;47 -->
<g id="edge8" class="edge"><title>42&#45;&gt;47</title>
<path fill="none" stroke="black" d="M354.146,-287.697C354.146,-279.983 354.146,-270.712 354.146,-262.112"/>
<polygon fill="black" stroke="black" points="357.646,-262.104 354.146,-252.104 350.646,-262.104 357.646,-262.104"/>
</g>
<!-- 43 -->
<g id="node10" class="node"><title>43</title>
<ellipse fill="none" stroke="black" cx="481.146" cy="-234" rx="30.5947" ry="18"/>
<text text-anchor="middle" x="481.146" y="-230.3" font-family="Times,serif" font-size="14.00">map1</text>
</g>
<!-- 42&#45;&gt;43 -->
<g id="edge9" class="edge"><title>42&#45;&gt;43</title>
<path fill="none" stroke="black" d="M375.117,-293.441C395.642,-282.128 427.138,-264.768 450.474,-251.906"/>
<polygon fill="black" stroke="black" points="452.223,-254.938 459.291,-247.046 448.844,-248.808 452.223,-254.938"/>
</g>
<!-- 50 -->
<g id="node11" class="node"><title>50</title>
<ellipse fill="none" stroke="black" cx="179.146" cy="-162" rx="53.8905" ry="18"/>
<text text-anchor="middle" x="179.146" y="-158.3" font-family="Times,serif" font-size="14.00">output&#45;main</text>
</g>
<!-- 49&#45;&gt;50 -->
<g id="edge10" class="edge"><title>49&#45;&gt;50</title>
<path fill="none" stroke="black" d="M216.254,-217.116C210.409,-208.592 203.068,-197.886 196.461,-188.251"/>
<polygon fill="black" stroke="black" points="199.206,-186.065 190.664,-179.797 193.433,-190.024 199.206,-186.065"/>
</g>
<!-- 48 -->
<g id="node12" class="node"><title>48</title>
<ellipse fill="none" stroke="black" cx="354.146" cy="-162" rx="102.882" ry="18"/>
<text text-anchor="middle" x="354.146" y="-158.3" font-family="Times,serif" font-size="14.00">output&#45;outbound&#45;port&#45;title</text>
</g>
<!-- 47&#45;&gt;48 -->
<g id="edge11" class="edge"><title>47&#45;&gt;48</title>
<path fill="none" stroke="black" d="M354.146,-215.697C354.146,-207.983 354.146,-198.712 354.146,-190.112"/>
<polygon fill="black" stroke="black" points="357.646,-190.104 354.146,-180.104 350.646,-190.104 357.646,-190.104"/>
</g>
<!-- 44 -->
<g id="node13" class="node"><title>44</title>
<ellipse fill="none" stroke="black" cx="529.146" cy="-162" rx="54.6905" ry="18"/>
<text text-anchor="middle" x="529.146" y="-158.3" font-family="Times,serif" font-size="14.00">dropRepeats</text>
</g>
<!-- 43&#45;&gt;44 -->
<g id="edge12" class="edge"><title>43&#45;&gt;44</title>
<path fill="none" stroke="black" d="M492.038,-217.116C497.883,-208.592 505.224,-197.886 511.831,-188.251"/>
<polygon fill="black" stroke="black" points="514.859,-190.024 517.628,-179.797 509.086,-186.065 514.859,-190.024"/>
</g>
<!-- 45 -->
<g id="node14" class="node"><title>45</title>
<ellipse fill="none" stroke="black" cx="529.146" cy="-90" rx="30.5947" ry="18"/>
<text text-anchor="middle" x="529.146" y="-86.3" font-family="Times,serif" font-size="14.00">map1</text>
</g>
<!-- 44&#45;&gt;45 -->
<g id="edge13" class="edge"><title>44&#45;&gt;45</title>
<path fill="none" stroke="black" d="M529.146,-143.697C529.146,-135.983 529.146,-126.712 529.146,-118.112"/>
<polygon fill="black" stroke="black" points="532.646,-118.104 529.146,-108.104 525.646,-118.104 532.646,-118.104"/>
</g>
<!-- 46 -->
<g id="node15" class="node"><title>46</title>
<ellipse fill="none" stroke="black" cx="529.146" cy="-18" rx="112.38" ry="18"/>
<text text-anchor="middle" x="529.146" y="-14.3" font-family="Times,serif" font-size="14.00">output&#45;perform&#45;tasks&#45;history</text>
</g>
<!-- 45&#45;&gt;46 -->
<g id="edge14" class="edge"><title>45&#45;&gt;46</title>
<path fill="none" stroke="black" d="M529.146,-71.6966C529.146,-63.9827 529.146,-54.7125 529.146,-46.1124"/>
<polygon fill="black" stroke="black" points="532.646,-46.1043 529.146,-36.1043 525.646,-46.1044 532.646,-46.1043"/>
</g>
<!-- 39&#45;&gt;41 -->
<g id="edge16" class="edge"><title>39&#45;&gt;41</title>
<path fill="none" stroke="black" d="M385.637,-432.765C380.689,-424.317 374.528,-413.799 368.972,-404.312"/>
<polygon fill="black" stroke="black" points="371.963,-402.493 363.888,-395.633 365.922,-406.031 371.963,-402.493"/>
</g>
<!-- 7 -->
<g id="node17" class="node"><title>7</title>
<ellipse fill="none" stroke="black" cx="174.146" cy="-1026" rx="63.8893" ry="18"/>
<text text-anchor="middle" x="174.146" y="-1022.3" font-family="Times,serif" font-size="14.00">input&#45;keydown</text>
</g>
<!-- 13 -->
<g id="node18" class="node"><title>13</title>
<ellipse fill="none" stroke="black" cx="161.146" cy="-954" rx="30.5947" ry="18"/>
<text text-anchor="middle" x="161.146" y="-950.3" font-family="Times,serif" font-size="14.00">map1</text>
</g>
<!-- 7&#45;&gt;13 -->
<g id="edge17" class="edge"><title>7&#45;&gt;13</title>
<path fill="none" stroke="black" d="M170.932,-1007.7C169.5,-999.983 167.778,-990.712 166.181,-982.112"/>
<polygon fill="black" stroke="black" points="169.59,-981.297 164.322,-972.104 162.707,-982.575 169.59,-981.297"/>
</g>
<!-- 15 -->
<g id="node19" class="node"><title>15</title>
<ellipse fill="none" stroke="black" cx="161.146" cy="-882" rx="33.2948" ry="18"/>
<text text-anchor="middle" x="161.146" y="-878.3" font-family="Times,serif" font-size="14.00">merge</text>
</g>
<!-- 13&#45;&gt;15 -->
<g id="edge18" class="edge"><title>13&#45;&gt;15</title>
<path fill="none" stroke="black" d="M161.146,-935.697C161.146,-927.983 161.146,-918.712 161.146,-910.112"/>
<polygon fill="black" stroke="black" points="164.646,-910.104 161.146,-900.104 157.646,-910.104 164.646,-910.104"/>
</g>
<!-- 16 -->
<g id="node20" class="node"><title>16</title>
<ellipse fill="none" stroke="black" cx="207.146" cy="-810" rx="33.2948" ry="18"/>
<text text-anchor="middle" x="207.146" y="-806.3" font-family="Times,serif" font-size="14.00">merge</text>
</g>
<!-- 15&#45;&gt;16 -->
<g id="edge19" class="edge"><title>15&#45;&gt;16</title>
<path fill="none" stroke="black" d="M171.815,-864.765C177.505,-856.106 184.624,-845.273 190.978,-835.604"/>
<polygon fill="black" stroke="black" points="193.968,-837.427 196.535,-827.147 188.118,-833.582 193.968,-837.427"/>
</g>
<!-- 17 -->
<g id="node21" class="node"><title>17</title>
<ellipse fill="none" stroke="black" cx="207.146" cy="-738" rx="29.4969" ry="18"/>
<text text-anchor="middle" x="207.146" y="-734.3" font-family="Times,serif" font-size="14.00">foldp</text>
</g>
<!-- 16&#45;&gt;17 -->
<g id="edge20" class="edge"><title>16&#45;&gt;17</title>
<path fill="none" stroke="black" d="M207.146,-791.697C207.146,-783.983 207.146,-774.712 207.146,-766.112"/>
<polygon fill="black" stroke="black" points="210.646,-766.104 207.146,-756.104 203.646,-766.104 210.646,-766.104"/>
</g>
<!-- 22 -->
<g id="node22" class="node"><title>22</title>
<ellipse fill="none" stroke="black" cx="207.146" cy="-666" rx="30.5947" ry="18"/>
<text text-anchor="middle" x="207.146" y="-662.3" font-family="Times,serif" font-size="14.00">map1</text>
</g>
<!-- 17&#45;&gt;22 -->
<g id="edge21" class="edge"><title>17&#45;&gt;22</title>
<path fill="none" stroke="black" d="M207.146,-719.697C207.146,-711.983 207.146,-702.712 207.146,-694.112"/>
<polygon fill="black" stroke="black" points="210.646,-694.104 207.146,-684.104 203.646,-694.104 210.646,-694.104"/>
</g>
<!-- 23 -->
<g id="node23" class="node"><title>23</title>
<ellipse fill="none" stroke="black" cx="207.146" cy="-594" rx="54.6905" ry="18"/>
<text text-anchor="middle" x="207.146" y="-590.3" font-family="Times,serif" font-size="14.00">dropRepeats</text>
</g>
<!-- 22&#45;&gt;23 -->
<g id="edge22" class="edge"><title>22&#45;&gt;23</title>
<path fill="none" stroke="black" d="M207.146,-647.697C207.146,-639.983 207.146,-630.712 207.146,-622.112"/>
<polygon fill="black" stroke="black" points="210.646,-622.104 207.146,-612.104 203.646,-622.104 210.646,-622.104"/>
</g>
<!-- 36 -->
<g id="node24" class="node"><title>36</title>
<ellipse fill="none" stroke="black" cx="230.146" cy="-522" rx="30.5947" ry="18"/>
<text text-anchor="middle" x="230.146" y="-518.3" font-family="Times,serif" font-size="14.00">map1</text>
</g>
<!-- 23&#45;&gt;36 -->
<g id="edge23" class="edge"><title>23&#45;&gt;36</title>
<path fill="none" stroke="black" d="M212.714,-576.055C215.341,-568.059 218.537,-558.331 221.472,-549.4"/>
<polygon fill="black" stroke="black" points="224.833,-550.382 224.63,-539.789 218.183,-548.197 224.833,-550.382"/>
</g>
<!-- 36&#45;&gt;40 -->
<g id="edge24" class="edge"><title>36&#45;&gt;40</title>
<path fill="none" stroke="black" d="M246.942,-506.834C258.71,-496.909 274.646,-483.47 287.933,-472.264"/>
<polygon fill="black" stroke="black" points="290.415,-474.749 295.803,-465.626 285.902,-469.398 290.415,-474.749"/>
</g>
<!-- 8 -->
<g id="node25" class="node"><title>8</title>
<ellipse fill="none" stroke="black" cx="263.146" cy="-954" rx="53.0913" ry="18"/>
<text text-anchor="middle" x="263.146" y="-950.3" font-family="Times,serif" font-size="14.00">input&#45;keyup</text>
</g>
<!-- 12 -->
<g id="node26" class="node"><title>12</title>
<ellipse fill="none" stroke="black" cx="253.146" cy="-882" rx="30.5947" ry="18"/>
<text text-anchor="middle" x="253.146" y="-878.3" font-family="Times,serif" font-size="14.00">map1</text>
</g>
<!-- 8&#45;&gt;12 -->
<g id="edge25" class="edge"><title>8&#45;&gt;12</title>
<path fill="none" stroke="black" d="M260.674,-935.697C259.572,-927.983 258.248,-918.712 257.019,-910.112"/>
<polygon fill="black" stroke="black" points="260.469,-909.509 255.589,-900.104 253.539,-910.499 260.469,-909.509"/>
</g>
<!-- 12&#45;&gt;16 -->
<g id="edge26" class="edge"><title>12&#45;&gt;16</title>
<path fill="none" stroke="black" d="M242.477,-864.765C236.787,-856.106 229.668,-845.273 223.314,-835.604"/>
<polygon fill="black" stroke="black" points="226.174,-833.582 217.757,-827.147 220.324,-837.427 226.174,-833.582"/>
</g>
<!-- 10 -->
<g id="node27" class="node"><title>10</title>
<ellipse fill="none" stroke="black" cx="46.1459" cy="-1026" rx="46.2923" ry="18"/>
<text text-anchor="middle" x="46.1459" y="-1022.3" font-family="Times,serif" font-size="14.00">input&#45;blur</text>
</g>
<!-- 14 -->
<g id="node28" class="node"><title>14</title>
<ellipse fill="none" stroke="black" cx="58.1459" cy="-954" rx="30.5947" ry="18"/>
<text text-anchor="middle" x="58.1459" y="-950.3" font-family="Times,serif" font-size="14.00">map1</text>
</g>
<!-- 10&#45;&gt;14 -->
<g id="edge27" class="edge"><title>10&#45;&gt;14</title>
<path fill="none" stroke="black" d="M49.1122,-1007.7C50.4346,-999.983 52.0238,-990.712 53.4981,-982.112"/>
<polygon fill="black" stroke="black" points="56.9737,-982.552 55.2137,-972.104 50.0743,-981.369 56.9737,-982.552"/>
</g>
<!-- 14&#45;&gt;15 -->
<g id="edge28" class="edge"><title>14&#45;&gt;15</title>
<path fill="none" stroke="black" d="M77.5194,-939.834C93.0022,-929.311 114.935,-914.405 132.455,-902.499"/>
<polygon fill="black" stroke="black" points="134.853,-905.101 141.157,-896.585 130.919,-899.311 134.853,-905.101"/>
</g>
<!-- 37 -->
<g id="node29" class="node"><title>37</title>
<ellipse fill="none" stroke="black" cx="468.146" cy="-594" rx="61.1893" ry="18"/>
<text text-anchor="middle" x="468.146" y="-590.3" font-family="Times,serif" font-size="14.00">input&#45;mailbox</text>
</g>
<!-- 37&#45;&gt;38 -->
<g id="edge30" class="edge"><title>37&#45;&gt;38</title>
<path fill="none" stroke="black" d="M450.372,-576.411C440.612,-567.302 428.36,-555.866 417.699,-545.916"/>
<polygon fill="black" stroke="black" points="419.975,-543.253 410.276,-538.988 415.198,-548.37 419.975,-543.253"/>
</g>
<!-- 37&#45;&gt;39 -->
<g id="edge29" class="edge"><title>37&#45;&gt;39</title>
<path fill="none" stroke="black" d="M467.41,-575.918C465.966,-557.215 461.702,-526.846 449.146,-504 442.306,-491.555 431.614,-480.17 421.543,-471.169"/>
<polygon fill="black" stroke="black" points="423.569,-468.298 413.684,-464.486 419.035,-473.63 423.569,-468.298"/>
</g>
</g>
</svg>
